<?xml version="1.0" encoding="utf-8"?>
<svg xmlns="http://www.w3.org/2000/svg" xmlns:xlink="http://www.w3.org/1999/xlink" width="600" height="400" viewBox="0 0 2400 1600">
<defs>
  <clipPath id="clip420">
    <rect x="0" y="0" width="2400" height="1600"/>
  </clipPath>
</defs>
<path clip-path="url(#clip420)" d="M0 1600 L2400 1600 L2400 0 L0 0  Z" fill="#ffffff" fill-rule="evenodd" fill-opacity="1"/>
<defs>
  <clipPath id="clip421">
    <rect x="216" y="47" width="2137" height="1440"/>
  </clipPath>
</defs>
<path clip-path="url(#clip420)" d="M216.436 1486.45 L2352.76 1486.45 L2352.76 47.2441 L216.436 47.2441  Z" fill="#ffffff" fill-rule="evenodd" fill-opacity="1"/>
<polyline clip-path="url(#clip421)" style="stroke:#000000; stroke-linecap:round; stroke-linejoin:round; stroke-width:2; stroke-opacity:0.1; fill:none" points="276.898,1486.45 276.898,47.2441 "/>
<polyline clip-path="url(#clip421)" style="stroke:#000000; stroke-linecap:round; stroke-linejoin:round; stroke-width:2; stroke-opacity:0.1; fill:none" points="961.373,1486.45 961.373,47.2441 "/>
<polyline clip-path="url(#clip421)" style="stroke:#000000; stroke-linecap:round; stroke-linejoin:round; stroke-width:2; stroke-opacity:0.1; fill:none" points="1645.85,1486.45 1645.85,47.2441 "/>
<polyline clip-path="url(#clip421)" style="stroke:#000000; stroke-linecap:round; stroke-linejoin:round; stroke-width:2; stroke-opacity:0.1; fill:none" points="2330.32,1486.45 2330.32,47.2441 "/>
<polyline clip-path="url(#clip421)" style="stroke:#000000; stroke-linecap:round; stroke-linejoin:round; stroke-width:2; stroke-opacity:0.1; fill:none" points="216.436,1457.63 2352.76,1457.63 "/>
<polyline clip-path="url(#clip421)" style="stroke:#000000; stroke-linecap:round; stroke-linejoin:round; stroke-width:2; stroke-opacity:0.1; fill:none" points="216.436,1216.68 2352.76,1216.68 "/>
<polyline clip-path="url(#clip421)" style="stroke:#000000; stroke-linecap:round; stroke-linejoin:round; stroke-width:2; stroke-opacity:0.1; fill:none" points="216.436,975.738 2352.76,975.738 "/>
<polyline clip-path="url(#clip421)" style="stroke:#000000; stroke-linecap:round; stroke-linejoin:round; stroke-width:2; stroke-opacity:0.1; fill:none" points="216.436,734.791 2352.76,734.791 "/>
<polyline clip-path="url(#clip421)" style="stroke:#000000; stroke-linecap:round; stroke-linejoin:round; stroke-width:2; stroke-opacity:0.1; fill:none" points="216.436,493.844 2352.76,493.844 "/>
<polyline clip-path="url(#clip421)" style="stroke:#000000; stroke-linecap:round; stroke-linejoin:round; stroke-width:2; stroke-opacity:0.1; fill:none" points="216.436,252.897 2352.76,252.897 "/>
<polyline clip-path="url(#clip420)" style="stroke:#000000; stroke-linecap:round; stroke-linejoin:round; stroke-width:4; stroke-opacity:1; fill:none" points="216.436,1486.45 2352.76,1486.45 "/>
<polyline clip-path="url(#clip420)" style="stroke:#000000; stroke-linecap:round; stroke-linejoin:round; stroke-width:4; stroke-opacity:1; fill:none" points="276.898,1486.45 276.898,1467.55 "/>
<polyline clip-path="url(#clip420)" style="stroke:#000000; stroke-linecap:round; stroke-linejoin:round; stroke-width:4; stroke-opacity:1; fill:none" points="961.373,1486.45 961.373,1467.55 "/>
<polyline clip-path="url(#clip420)" style="stroke:#000000; stroke-linecap:round; stroke-linejoin:round; stroke-width:4; stroke-opacity:1; fill:none" points="1645.85,1486.45 1645.85,1467.55 "/>
<polyline clip-path="url(#clip420)" style="stroke:#000000; stroke-linecap:round; stroke-linejoin:round; stroke-width:4; stroke-opacity:1; fill:none" points="2330.32,1486.45 2330.32,1467.55 "/>
<path clip-path="url(#clip420)" d="M276.898 1517.37 Q273.287 1517.37 271.458 1520.93 Q269.652 1524.47 269.652 1531.6 Q269.652 1538.71 271.458 1542.27 Q273.287 1545.82 276.898 1545.82 Q280.532 1545.82 282.338 1542.27 Q284.166 1538.71 284.166 1531.6 Q284.166 1524.47 282.338 1520.93 Q280.532 1517.37 276.898 1517.37 M276.898 1513.66 Q282.708 1513.66 285.763 1518.27 Q288.842 1522.85 288.842 1531.6 Q288.842 1540.33 285.763 1544.94 Q282.708 1549.52 276.898 1549.52 Q271.088 1549.52 268.009 1544.94 Q264.953 1540.33 264.953 1531.6 Q264.953 1522.85 268.009 1518.27 Q271.088 1513.66 276.898 1513.66 Z" fill="#000000" fill-rule="nonzero" fill-opacity="1" /><path clip-path="url(#clip420)" d="M951.755 1544.91 L959.394 1544.91 L959.394 1518.55 L951.084 1520.21 L951.084 1515.95 L959.348 1514.29 L964.024 1514.29 L964.024 1544.91 L971.663 1544.91 L971.663 1548.85 L951.755 1548.85 L951.755 1544.91 Z" fill="#000000" fill-rule="nonzero" fill-opacity="1" /><path clip-path="url(#clip420)" d="M1640.5 1544.91 L1656.82 1544.91 L1656.82 1548.85 L1634.88 1548.85 L1634.88 1544.91 Q1637.54 1542.16 1642.12 1537.53 Q1646.73 1532.88 1647.91 1531.53 Q1650.15 1529.01 1651.03 1527.27 Q1651.94 1525.51 1651.94 1523.82 Q1651.94 1521.07 1649.99 1519.33 Q1648.07 1517.6 1644.97 1517.6 Q1642.77 1517.6 1640.32 1518.36 Q1637.89 1519.13 1635.11 1520.68 L1635.11 1515.95 Q1637.93 1514.82 1640.39 1514.24 Q1642.84 1513.66 1644.88 1513.66 Q1650.25 1513.66 1653.44 1516.35 Q1656.64 1519.03 1656.64 1523.52 Q1656.64 1525.65 1655.83 1527.57 Q1655.04 1529.47 1652.93 1532.07 Q1652.35 1532.74 1649.25 1535.95 Q1646.15 1539.15 1640.5 1544.91 Z" fill="#000000" fill-rule="nonzero" fill-opacity="1" /><path clip-path="url(#clip420)" d="M2334.57 1530.21 Q2337.93 1530.93 2339.8 1533.2 Q2341.7 1535.47 2341.7 1538.8 Q2341.7 1543.92 2338.18 1546.72 Q2334.66 1549.52 2328.18 1549.52 Q2326.01 1549.52 2323.69 1549.08 Q2321.4 1548.66 2318.95 1547.81 L2318.95 1543.29 Q2320.89 1544.43 2323.21 1545.01 Q2325.52 1545.58 2328.04 1545.58 Q2332.44 1545.58 2334.73 1543.85 Q2337.05 1542.11 2337.05 1538.8 Q2337.05 1535.75 2334.9 1534.03 Q2332.77 1532.3 2328.95 1532.3 L2324.92 1532.3 L2324.92 1528.45 L2329.13 1528.45 Q2332.58 1528.45 2334.41 1527.09 Q2336.24 1525.7 2336.24 1523.11 Q2336.24 1520.45 2334.34 1519.03 Q2332.47 1517.6 2328.95 1517.6 Q2327.03 1517.6 2324.83 1518.01 Q2322.63 1518.43 2319.99 1519.31 L2319.99 1515.14 Q2322.65 1514.4 2324.97 1514.03 Q2327.3 1513.66 2329.36 1513.66 Q2334.69 1513.66 2337.79 1516.09 Q2340.89 1518.5 2340.89 1522.62 Q2340.89 1525.49 2339.25 1527.48 Q2337.6 1529.45 2334.57 1530.21 Z" fill="#000000" fill-rule="nonzero" fill-opacity="1" /><polyline clip-path="url(#clip420)" style="stroke:#000000; stroke-linecap:round; stroke-linejoin:round; stroke-width:4; stroke-opacity:1; fill:none" points="216.436,1486.45 216.436,47.2441 "/>
<polyline clip-path="url(#clip420)" style="stroke:#000000; stroke-linecap:round; stroke-linejoin:round; stroke-width:4; stroke-opacity:1; fill:none" points="216.436,1457.63 235.334,1457.63 "/>
<polyline clip-path="url(#clip420)" style="stroke:#000000; stroke-linecap:round; stroke-linejoin:round; stroke-width:4; stroke-opacity:1; fill:none" points="216.436,1216.68 235.334,1216.68 "/>
<polyline clip-path="url(#clip420)" style="stroke:#000000; stroke-linecap:round; stroke-linejoin:round; stroke-width:4; stroke-opacity:1; fill:none" points="216.436,975.738 235.334,975.738 "/>
<polyline clip-path="url(#clip420)" style="stroke:#000000; stroke-linecap:round; stroke-linejoin:round; stroke-width:4; stroke-opacity:1; fill:none" points="216.436,734.791 235.334,734.791 "/>
<polyline clip-path="url(#clip420)" style="stroke:#000000; stroke-linecap:round; stroke-linejoin:round; stroke-width:4; stroke-opacity:1; fill:none" points="216.436,493.844 235.334,493.844 "/>
<polyline clip-path="url(#clip420)" style="stroke:#000000; stroke-linecap:round; stroke-linejoin:round; stroke-width:4; stroke-opacity:1; fill:none" points="216.436,252.897 235.334,252.897 "/>
<path clip-path="url(#clip420)" d="M63.9319 1443.43 Q60.3208 1443.43 58.4921 1447 Q56.6865 1450.54 56.6865 1457.67 Q56.6865 1464.77 58.4921 1468.34 Q60.3208 1471.88 63.9319 1471.88 Q67.5661 1471.88 69.3717 1468.34 Q71.2004 1464.77 71.2004 1457.67 Q71.2004 1450.54 69.3717 1447 Q67.5661 1443.43 63.9319 1443.43 M63.9319 1439.73 Q69.742 1439.73 72.7976 1444.33 Q75.8763 1448.92 75.8763 1457.67 Q75.8763 1466.39 72.7976 1471 Q69.742 1475.58 63.9319 1475.58 Q58.1217 1475.58 55.043 1471 Q51.9875 1466.39 51.9875 1457.67 Q51.9875 1448.92 55.043 1444.33 Q58.1217 1439.73 63.9319 1439.73 Z" fill="#000000" fill-rule="nonzero" fill-opacity="1" /><path clip-path="url(#clip420)" d="M84.0938 1469.03 L88.978 1469.03 L88.978 1474.91 L84.0938 1474.91 L84.0938 1469.03 Z" fill="#000000" fill-rule="nonzero" fill-opacity="1" /><path clip-path="url(#clip420)" d="M109.163 1443.43 Q105.552 1443.43 103.723 1447 Q101.918 1450.54 101.918 1457.67 Q101.918 1464.77 103.723 1468.34 Q105.552 1471.88 109.163 1471.88 Q112.797 1471.88 114.603 1468.34 Q116.432 1464.77 116.432 1457.67 Q116.432 1450.54 114.603 1447 Q112.797 1443.43 109.163 1443.43 M109.163 1439.73 Q114.973 1439.73 118.029 1444.33 Q121.107 1448.92 121.107 1457.67 Q121.107 1466.39 118.029 1471 Q114.973 1475.58 109.163 1475.58 Q103.353 1475.58 100.274 1471 Q97.2187 1466.39 97.2187 1457.67 Q97.2187 1448.92 100.274 1444.33 Q103.353 1439.73 109.163 1439.73 Z" fill="#000000" fill-rule="nonzero" fill-opacity="1" /><path clip-path="url(#clip420)" d="M129.464 1474.19 L129.464 1469.93 Q131.223 1470.77 133.029 1471.21 Q134.834 1471.65 136.57 1471.65 Q141.2 1471.65 143.631 1468.55 Q146.084 1465.42 146.431 1459.08 Q145.089 1461.07 143.029 1462.13 Q140.968 1463.2 138.469 1463.2 Q133.283 1463.2 130.251 1460.07 Q127.242 1456.93 127.242 1451.49 Q127.242 1446.16 130.39 1442.94 Q133.538 1439.73 138.769 1439.73 Q144.765 1439.73 147.913 1444.33 Q151.084 1448.92 151.084 1457.67 Q151.084 1465.84 147.195 1470.72 Q143.33 1475.58 136.779 1475.58 Q135.019 1475.58 133.214 1475.24 Q131.408 1474.89 129.464 1474.19 M138.769 1459.54 Q141.918 1459.54 143.746 1457.39 Q145.598 1455.24 145.598 1451.49 Q145.598 1447.76 143.746 1445.61 Q141.918 1443.43 138.769 1443.43 Q135.621 1443.43 133.769 1445.61 Q131.941 1447.76 131.941 1451.49 Q131.941 1455.24 133.769 1457.39 Q135.621 1459.54 138.769 1459.54 Z" fill="#000000" fill-rule="nonzero" fill-opacity="1" /><path clip-path="url(#clip420)" d="M159.533 1440.35 L177.89 1440.35 L177.89 1444.29 L163.816 1444.29 L163.816 1452.76 Q164.834 1452.41 165.853 1452.25 Q166.871 1452.06 167.89 1452.06 Q173.677 1452.06 177.056 1455.24 Q180.436 1458.41 180.436 1463.82 Q180.436 1469.4 176.964 1472.5 Q173.491 1475.58 167.172 1475.58 Q164.996 1475.58 162.728 1475.21 Q160.482 1474.84 158.075 1474.1 L158.075 1469.4 Q160.158 1470.54 162.38 1471.09 Q164.603 1471.65 167.079 1471.65 Q171.084 1471.65 173.422 1469.54 Q175.76 1467.43 175.76 1463.82 Q175.76 1460.21 173.422 1458.11 Q171.084 1456 167.079 1456 Q165.204 1456 163.329 1456.42 Q161.478 1456.83 159.533 1457.71 L159.533 1440.35 Z" fill="#000000" fill-rule="nonzero" fill-opacity="1" /><path clip-path="url(#clip420)" d="M62.9365 1202.48 Q59.3254 1202.48 57.4967 1206.05 Q55.6912 1209.59 55.6912 1216.72 Q55.6912 1223.83 57.4967 1227.39 Q59.3254 1230.93 62.9365 1230.93 Q66.5707 1230.93 68.3763 1227.39 Q70.205 1223.83 70.205 1216.72 Q70.205 1209.59 68.3763 1206.05 Q66.5707 1202.48 62.9365 1202.48 M62.9365 1198.78 Q68.7467 1198.78 71.8022 1203.39 Q74.8809 1207.97 74.8809 1216.72 Q74.8809 1225.45 71.8022 1230.05 Q68.7467 1234.64 62.9365 1234.64 Q57.1264 1234.64 54.0477 1230.05 Q50.9921 1225.45 50.9921 1216.72 Q50.9921 1207.97 54.0477 1203.39 Q57.1264 1198.78 62.9365 1198.78 Z" fill="#000000" fill-rule="nonzero" fill-opacity="1" /><path clip-path="url(#clip420)" d="M83.0984 1228.09 L87.9827 1228.09 L87.9827 1233.96 L83.0984 1233.96 L83.0984 1228.09 Z" fill="#000000" fill-rule="nonzero" fill-opacity="1" /><path clip-path="url(#clip420)" d="M98.978 1230.03 L106.617 1230.03 L106.617 1203.66 L98.3067 1205.33 L98.3067 1201.07 L106.571 1199.4 L111.246 1199.4 L111.246 1230.03 L118.885 1230.03 L118.885 1233.96 L98.978 1233.96 L98.978 1230.03 Z" fill="#000000" fill-rule="nonzero" fill-opacity="1" /><path clip-path="url(#clip420)" d="M138.33 1202.48 Q134.719 1202.48 132.89 1206.05 Q131.084 1209.59 131.084 1216.72 Q131.084 1223.83 132.89 1227.39 Q134.719 1230.93 138.33 1230.93 Q141.964 1230.93 143.769 1227.39 Q145.598 1223.83 145.598 1216.72 Q145.598 1209.59 143.769 1206.05 Q141.964 1202.48 138.33 1202.48 M138.33 1198.78 Q144.14 1198.78 147.195 1203.39 Q150.274 1207.97 150.274 1216.72 Q150.274 1225.45 147.195 1230.05 Q144.14 1234.64 138.33 1234.64 Q132.519 1234.64 129.441 1230.05 Q126.385 1225.45 126.385 1216.72 Q126.385 1207.97 129.441 1203.39 Q132.519 1198.78 138.33 1198.78 Z" fill="#000000" fill-rule="nonzero" fill-opacity="1" /><path clip-path="url(#clip420)" d="M168.491 1202.48 Q164.88 1202.48 163.052 1206.05 Q161.246 1209.59 161.246 1216.72 Q161.246 1223.83 163.052 1227.39 Q164.88 1230.93 168.491 1230.93 Q172.126 1230.93 173.931 1227.39 Q175.76 1223.83 175.76 1216.72 Q175.76 1209.59 173.931 1206.05 Q172.126 1202.48 168.491 1202.48 M168.491 1198.78 Q174.302 1198.78 177.357 1203.39 Q180.436 1207.97 180.436 1216.72 Q180.436 1225.45 177.357 1230.05 Q174.302 1234.64 168.491 1234.64 Q162.681 1234.64 159.603 1230.05 Q156.547 1225.45 156.547 1216.72 Q156.547 1207.97 159.603 1203.39 Q162.681 1198.78 168.491 1198.78 Z" fill="#000000" fill-rule="nonzero" fill-opacity="1" /><path clip-path="url(#clip420)" d="M63.9319 961.537 Q60.3208 961.537 58.4921 965.101 Q56.6865 968.643 56.6865 975.773 Q56.6865 982.879 58.4921 986.444 Q60.3208 989.985 63.9319 989.985 Q67.5661 989.985 69.3717 986.444 Q71.2004 982.879 71.2004 975.773 Q71.2004 968.643 69.3717 965.101 Q67.5661 961.537 63.9319 961.537 M63.9319 957.833 Q69.742 957.833 72.7976 962.439 Q75.8763 967.023 75.8763 975.773 Q75.8763 984.499 72.7976 989.106 Q69.742 993.689 63.9319 993.689 Q58.1217 993.689 55.043 989.106 Q51.9875 984.499 51.9875 975.773 Q51.9875 967.023 55.043 962.439 Q58.1217 957.833 63.9319 957.833 Z" fill="#000000" fill-rule="nonzero" fill-opacity="1" /><path clip-path="url(#clip420)" d="M84.0938 987.138 L88.978 987.138 L88.978 993.018 L84.0938 993.018 L84.0938 987.138 Z" fill="#000000" fill-rule="nonzero" fill-opacity="1" /><path clip-path="url(#clip420)" d="M99.9733 989.083 L107.612 989.083 L107.612 962.717 L99.3021 964.384 L99.3021 960.125 L107.566 958.458 L112.242 958.458 L112.242 989.083 L119.881 989.083 L119.881 993.018 L99.9733 993.018 L99.9733 989.083 Z" fill="#000000" fill-rule="nonzero" fill-opacity="1" /><path clip-path="url(#clip420)" d="M139.325 961.537 Q135.714 961.537 133.885 965.101 Q132.08 968.643 132.08 975.773 Q132.08 982.879 133.885 986.444 Q135.714 989.985 139.325 989.985 Q142.959 989.985 144.765 986.444 Q146.593 982.879 146.593 975.773 Q146.593 968.643 144.765 965.101 Q142.959 961.537 139.325 961.537 M139.325 957.833 Q145.135 957.833 148.191 962.439 Q151.269 967.023 151.269 975.773 Q151.269 984.499 148.191 989.106 Q145.135 993.689 139.325 993.689 Q133.515 993.689 130.436 989.106 Q127.381 984.499 127.381 975.773 Q127.381 967.023 130.436 962.439 Q133.515 957.833 139.325 957.833 Z" fill="#000000" fill-rule="nonzero" fill-opacity="1" /><path clip-path="url(#clip420)" d="M159.533 958.458 L177.89 958.458 L177.89 962.393 L163.816 962.393 L163.816 970.865 Q164.834 970.518 165.853 970.356 Q166.871 970.171 167.89 970.171 Q173.677 970.171 177.056 973.342 Q180.436 976.513 180.436 981.93 Q180.436 987.509 176.964 990.61 Q173.491 993.689 167.172 993.689 Q164.996 993.689 162.728 993.319 Q160.482 992.948 158.075 992.208 L158.075 987.509 Q160.158 988.643 162.38 989.198 Q164.603 989.754 167.079 989.754 Q171.084 989.754 173.422 987.648 Q175.76 985.541 175.76 981.93 Q175.76 978.319 173.422 976.212 Q171.084 974.106 167.079 974.106 Q165.204 974.106 163.329 974.523 Q161.478 974.939 159.533 975.819 L159.533 958.458 Z" fill="#000000" fill-rule="nonzero" fill-opacity="1" /><path clip-path="url(#clip420)" d="M62.9365 720.59 Q59.3254 720.59 57.4967 724.154 Q55.6912 727.696 55.6912 734.826 Q55.6912 741.932 57.4967 745.497 Q59.3254 749.039 62.9365 749.039 Q66.5707 749.039 68.3763 745.497 Q70.205 741.932 70.205 734.826 Q70.205 727.696 68.3763 724.154 Q66.5707 720.59 62.9365 720.59 M62.9365 716.886 Q68.7467 716.886 71.8022 721.492 Q74.8809 726.076 74.8809 734.826 Q74.8809 743.552 71.8022 748.159 Q68.7467 752.742 62.9365 752.742 Q57.1264 752.742 54.0477 748.159 Q50.9921 743.552 50.9921 734.826 Q50.9921 726.076 54.0477 721.492 Q57.1264 716.886 62.9365 716.886 Z" fill="#000000" fill-rule="nonzero" fill-opacity="1" /><path clip-path="url(#clip420)" d="M83.0984 746.191 L87.9827 746.191 L87.9827 752.071 L83.0984 752.071 L83.0984 746.191 Z" fill="#000000" fill-rule="nonzero" fill-opacity="1" /><path clip-path="url(#clip420)" d="M98.978 748.136 L106.617 748.136 L106.617 721.77 L98.3067 723.437 L98.3067 719.178 L106.571 717.511 L111.246 717.511 L111.246 748.136 L118.885 748.136 L118.885 752.071 L98.978 752.071 L98.978 748.136 Z" fill="#000000" fill-rule="nonzero" fill-opacity="1" /><path clip-path="url(#clip420)" d="M129.14 748.136 L136.779 748.136 L136.779 721.77 L128.469 723.437 L128.469 719.178 L136.732 717.511 L141.408 717.511 L141.408 748.136 L149.047 748.136 L149.047 752.071 L129.14 752.071 L129.14 748.136 Z" fill="#000000" fill-rule="nonzero" fill-opacity="1" /><path clip-path="url(#clip420)" d="M168.491 720.59 Q164.88 720.59 163.052 724.154 Q161.246 727.696 161.246 734.826 Q161.246 741.932 163.052 745.497 Q164.88 749.039 168.491 749.039 Q172.126 749.039 173.931 745.497 Q175.76 741.932 175.76 734.826 Q175.76 727.696 173.931 724.154 Q172.126 720.59 168.491 720.59 M168.491 716.886 Q174.302 716.886 177.357 721.492 Q180.436 726.076 180.436 734.826 Q180.436 743.552 177.357 748.159 Q174.302 752.742 168.491 752.742 Q162.681 752.742 159.603 748.159 Q156.547 743.552 156.547 734.826 Q156.547 726.076 159.603 721.492 Q162.681 716.886 168.491 716.886 Z" fill="#000000" fill-rule="nonzero" fill-opacity="1" /><path clip-path="url(#clip420)" d="M63.9319 479.643 Q60.3208 479.643 58.4921 483.207 Q56.6865 486.749 56.6865 493.879 Q56.6865 500.985 58.4921 504.55 Q60.3208 508.092 63.9319 508.092 Q67.5661 508.092 69.3717 504.55 Q71.2004 500.985 71.2004 493.879 Q71.2004 486.749 69.3717 483.207 Q67.5661 479.643 63.9319 479.643 M63.9319 475.939 Q69.742 475.939 72.7976 480.545 Q75.8763 485.129 75.8763 493.879 Q75.8763 502.606 72.7976 507.212 Q69.742 511.795 63.9319 511.795 Q58.1217 511.795 55.043 507.212 Q51.9875 502.606 51.9875 493.879 Q51.9875 485.129 55.043 480.545 Q58.1217 475.939 63.9319 475.939 Z" fill="#000000" fill-rule="nonzero" fill-opacity="1" /><path clip-path="url(#clip420)" d="M84.0938 505.244 L88.978 505.244 L88.978 511.124 L84.0938 511.124 L84.0938 505.244 Z" fill="#000000" fill-rule="nonzero" fill-opacity="1" /><path clip-path="url(#clip420)" d="M99.9733 507.189 L107.612 507.189 L107.612 480.823 L99.3021 482.49 L99.3021 478.231 L107.566 476.564 L112.242 476.564 L112.242 507.189 L119.881 507.189 L119.881 511.124 L99.9733 511.124 L99.9733 507.189 Z" fill="#000000" fill-rule="nonzero" fill-opacity="1" /><path clip-path="url(#clip420)" d="M130.135 507.189 L137.774 507.189 L137.774 480.823 L129.464 482.49 L129.464 478.231 L137.728 476.564 L142.404 476.564 L142.404 507.189 L150.043 507.189 L150.043 511.124 L130.135 511.124 L130.135 507.189 Z" fill="#000000" fill-rule="nonzero" fill-opacity="1" /><path clip-path="url(#clip420)" d="M159.533 476.564 L177.89 476.564 L177.89 480.499 L163.816 480.499 L163.816 488.971 Q164.834 488.624 165.853 488.462 Q166.871 488.277 167.89 488.277 Q173.677 488.277 177.056 491.448 Q180.436 494.619 180.436 500.036 Q180.436 505.615 176.964 508.717 Q173.491 511.795 167.172 511.795 Q164.996 511.795 162.728 511.425 Q160.482 511.055 158.075 510.314 L158.075 505.615 Q160.158 506.749 162.38 507.305 Q164.603 507.86 167.079 507.86 Q171.084 507.86 173.422 505.754 Q175.76 503.647 175.76 500.036 Q175.76 496.425 173.422 494.319 Q171.084 492.212 167.079 492.212 Q165.204 492.212 163.329 492.629 Q161.478 493.045 159.533 493.925 L159.533 476.564 Z" fill="#000000" fill-rule="nonzero" fill-opacity="1" /><path clip-path="url(#clip420)" d="M62.9365 238.696 Q59.3254 238.696 57.4967 242.261 Q55.6912 245.802 55.6912 252.932 Q55.6912 260.038 57.4967 263.603 Q59.3254 267.145 62.9365 267.145 Q66.5707 267.145 68.3763 263.603 Q70.205 260.038 70.205 252.932 Q70.205 245.802 68.3763 242.261 Q66.5707 238.696 62.9365 238.696 M62.9365 234.992 Q68.7467 234.992 71.8022 239.598 Q74.8809 244.182 74.8809 252.932 Q74.8809 261.659 71.8022 266.265 Q68.7467 270.848 62.9365 270.848 Q57.1264 270.848 54.0477 266.265 Q50.9921 261.659 50.9921 252.932 Q50.9921 244.182 54.0477 239.598 Q57.1264 234.992 62.9365 234.992 Z" fill="#000000" fill-rule="nonzero" fill-opacity="1" /><path clip-path="url(#clip420)" d="M83.0984 264.297 L87.9827 264.297 L87.9827 270.177 L83.0984 270.177 L83.0984 264.297 Z" fill="#000000" fill-rule="nonzero" fill-opacity="1" /><path clip-path="url(#clip420)" d="M98.978 266.242 L106.617 266.242 L106.617 239.876 L98.3067 241.543 L98.3067 237.284 L106.571 235.617 L111.246 235.617 L111.246 266.242 L118.885 266.242 L118.885 270.177 L98.978 270.177 L98.978 266.242 Z" fill="#000000" fill-rule="nonzero" fill-opacity="1" /><path clip-path="url(#clip420)" d="M132.357 266.242 L148.677 266.242 L148.677 270.177 L126.732 270.177 L126.732 266.242 Q129.394 263.487 133.978 258.858 Q138.584 254.205 139.765 252.862 Q142.01 250.339 142.89 248.603 Q143.793 246.844 143.793 245.154 Q143.793 242.399 141.848 240.663 Q139.927 238.927 136.825 238.927 Q134.626 238.927 132.172 239.691 Q129.742 240.455 126.964 242.006 L126.964 237.284 Q129.788 236.149 132.242 235.571 Q134.695 234.992 136.732 234.992 Q142.103 234.992 145.297 237.677 Q148.492 240.362 148.492 244.853 Q148.492 246.983 147.681 248.904 Q146.894 250.802 144.788 253.395 Q144.209 254.066 141.107 257.284 Q138.006 260.478 132.357 266.242 Z" fill="#000000" fill-rule="nonzero" fill-opacity="1" /><path clip-path="url(#clip420)" d="M168.491 238.696 Q164.88 238.696 163.052 242.261 Q161.246 245.802 161.246 252.932 Q161.246 260.038 163.052 263.603 Q164.88 267.145 168.491 267.145 Q172.126 267.145 173.931 263.603 Q175.76 260.038 175.76 252.932 Q175.76 245.802 173.931 242.261 Q172.126 238.696 168.491 238.696 M168.491 234.992 Q174.302 234.992 177.357 239.598 Q180.436 244.182 180.436 252.932 Q180.436 261.659 177.357 266.265 Q174.302 270.848 168.491 270.848 Q162.681 270.848 159.603 266.265 Q156.547 261.659 156.547 252.932 Q156.547 244.182 159.603 239.598 Q162.681 234.992 168.491 234.992 Z" fill="#000000" fill-rule="nonzero" fill-opacity="1" /><circle clip-path="url(#clip421)" cx="276.898" cy="342.485" r="14.4" fill="#009af9" fill-rule="evenodd" fill-opacity="1" stroke="#000000" stroke-opacity="1" stroke-width="3.2"/>
<circle clip-path="url(#clip421)" cx="751.34" cy="87.9763" r="14.4" fill="#009af9" fill-rule="evenodd" fill-opacity="1" stroke="#000000" stroke-opacity="1" stroke-width="3.2"/>
<circle clip-path="url(#clip421)" cx="1028.87" cy="939.135" r="14.4" fill="#009af9" fill-rule="evenodd" fill-opacity="1" stroke="#000000" stroke-opacity="1" stroke-width="3.2"/>
<circle clip-path="url(#clip421)" cx="1225.78" cy="580.551" r="14.4" fill="#009af9" fill-rule="evenodd" fill-opacity="1" stroke="#000000" stroke-opacity="1" stroke-width="3.2"/>
<circle clip-path="url(#clip421)" cx="1378.52" cy="1445.72" r="14.4" fill="#009af9" fill-rule="evenodd" fill-opacity="1" stroke="#000000" stroke-opacity="1" stroke-width="3.2"/>
<circle clip-path="url(#clip421)" cx="1503.31" cy="246.427" r="14.4" fill="#009af9" fill-rule="evenodd" fill-opacity="1" stroke="#000000" stroke-opacity="1" stroke-width="3.2"/>
<circle clip-path="url(#clip421)" cx="1608.83" cy="753.29" r="14.4" fill="#009af9" fill-rule="evenodd" fill-opacity="1" stroke="#000000" stroke-opacity="1" stroke-width="3.2"/>
<circle clip-path="url(#clip421)" cx="1700.22" cy="731.76" r="14.4" fill="#009af9" fill-rule="evenodd" fill-opacity="1" stroke="#000000" stroke-opacity="1" stroke-width="3.2"/>
<circle clip-path="url(#clip421)" cx="1780.84" cy="272.106" r="14.4" fill="#009af9" fill-rule="evenodd" fill-opacity="1" stroke="#000000" stroke-opacity="1" stroke-width="3.2"/>
<circle clip-path="url(#clip421)" cx="1852.96" cy="882.206" r="14.4" fill="#009af9" fill-rule="evenodd" fill-opacity="1" stroke="#000000" stroke-opacity="1" stroke-width="3.2"/>
<circle clip-path="url(#clip421)" cx="1918.2" cy="440.649" r="14.4" fill="#009af9" fill-rule="evenodd" fill-opacity="1" stroke="#000000" stroke-opacity="1" stroke-width="3.2"/>
<circle clip-path="url(#clip421)" cx="1977.76" cy="914.089" r="14.4" fill="#009af9" fill-rule="evenodd" fill-opacity="1" stroke="#000000" stroke-opacity="1" stroke-width="3.2"/>
<circle clip-path="url(#clip421)" cx="2032.54" cy="97.5588" r="14.4" fill="#009af9" fill-rule="evenodd" fill-opacity="1" stroke="#000000" stroke-opacity="1" stroke-width="3.2"/>
<circle clip-path="url(#clip421)" cx="2083.27" cy="1077.99" r="14.4" fill="#009af9" fill-rule="evenodd" fill-opacity="1" stroke="#000000" stroke-opacity="1" stroke-width="3.2"/>
<circle clip-path="url(#clip421)" cx="2130.49" cy="751.316" r="14.4" fill="#009af9" fill-rule="evenodd" fill-opacity="1" stroke="#000000" stroke-opacity="1" stroke-width="3.2"/>
<circle clip-path="url(#clip421)" cx="2174.67" cy="476.974" r="14.4" fill="#009af9" fill-rule="evenodd" fill-opacity="1" stroke="#000000" stroke-opacity="1" stroke-width="3.2"/>
<circle clip-path="url(#clip421)" cx="2216.16" cy="768.216" r="14.4" fill="#009af9" fill-rule="evenodd" fill-opacity="1" stroke="#000000" stroke-opacity="1" stroke-width="3.2"/>
<circle clip-path="url(#clip421)" cx="2255.29" cy="734.95" r="14.4" fill="#009af9" fill-rule="evenodd" fill-opacity="1" stroke="#000000" stroke-opacity="1" stroke-width="3.2"/>
<circle clip-path="url(#clip421)" cx="2292.29" cy="792.27" r="14.4" fill="#009af9" fill-rule="evenodd" fill-opacity="1" stroke="#000000" stroke-opacity="1" stroke-width="3.2"/>
<polyline clip-path="url(#clip421)" style="stroke:#e26f46; stroke-linecap:round; stroke-linejoin:round; stroke-width:4; stroke-opacity:1; fill:none" points="276.898,445.453 751.34,513.677 1028.87,553.585 1225.78,581.9 1378.52,603.863 1503.31,621.809 1608.83,636.981 1700.22,650.124 1780.84,661.717 1852.96,672.087 1918.2,681.468 1977.76,690.032 2032.54,697.91 2083.27,705.204 2130.49,711.995 2174.67,718.347 2216.16,724.314 2255.29,729.94 2292.29,735.262 "/>
<path clip-path="url(#clip420)" d="M1862.84 1438.47 L2281.55 1438.47 L2281.55 1282.95 L1862.84 1282.95  Z" fill="#ffffff" fill-rule="evenodd" fill-opacity="1"/>
<polyline clip-path="url(#clip420)" style="stroke:#000000; stroke-linecap:round; stroke-linejoin:round; stroke-width:4; stroke-opacity:1; fill:none" points="1862.84,1438.47 2281.55,1438.47 2281.55,1282.95 1862.84,1282.95 1862.84,1438.47 "/>
<circle clip-path="url(#clip420)" cx="1957.79" cy="1334.79" r="20.48" fill="#009af9" fill-rule="evenodd" fill-opacity="1" stroke="#000000" stroke-opacity="1" stroke-width="4.55111"/>
<path clip-path="url(#clip420)" d="M2071.65 1330.08 L2071.65 1316.06 L2075.91 1316.06 L2075.91 1352.07 L2071.65 1352.07 L2071.65 1348.19 Q2070.31 1350.5 2068.25 1351.63 Q2066.21 1352.75 2063.34 1352.75 Q2058.64 1352.75 2055.68 1349 Q2052.74 1345.25 2052.74 1339.13 Q2052.74 1333.02 2055.68 1329.27 Q2058.64 1325.52 2063.34 1325.52 Q2066.21 1325.52 2068.25 1326.66 Q2070.31 1327.77 2071.65 1330.08 M2057.14 1339.13 Q2057.14 1343.83 2059.06 1346.52 Q2061 1349.18 2064.38 1349.18 Q2067.76 1349.18 2069.71 1346.52 Q2071.65 1343.83 2071.65 1339.13 Q2071.65 1334.44 2069.71 1331.77 Q2067.76 1329.09 2064.38 1329.09 Q2061 1329.09 2059.06 1331.77 Q2057.14 1334.44 2057.14 1339.13 Z" fill="#000000" fill-rule="nonzero" fill-opacity="1" /><path clip-path="url(#clip420)" d="M2096.47 1339.04 Q2091.3 1339.04 2089.31 1340.22 Q2087.32 1341.4 2087.32 1344.25 Q2087.32 1346.52 2088.8 1347.86 Q2090.31 1349.18 2092.88 1349.18 Q2096.42 1349.18 2098.55 1346.68 Q2100.7 1344.16 2100.7 1339.99 L2100.7 1339.04 L2096.47 1339.04 M2104.96 1337.28 L2104.96 1352.07 L2100.7 1352.07 L2100.7 1348.14 Q2099.24 1350.5 2097.07 1351.63 Q2094.89 1352.75 2091.74 1352.75 Q2087.76 1352.75 2085.4 1350.52 Q2083.06 1348.28 2083.06 1344.53 Q2083.06 1340.15 2085.98 1337.93 Q2088.92 1335.71 2094.73 1335.71 L2100.7 1335.71 L2100.7 1335.29 Q2100.7 1332.35 2098.76 1330.76 Q2096.84 1329.13 2093.34 1329.13 Q2091.12 1329.13 2089.01 1329.67 Q2086.91 1330.2 2084.96 1331.26 L2084.96 1327.33 Q2087.3 1326.43 2089.5 1325.99 Q2091.7 1325.52 2093.78 1325.52 Q2099.41 1325.52 2102.18 1328.44 Q2104.96 1331.36 2104.96 1337.28 Z" fill="#000000" fill-rule="nonzero" fill-opacity="1" /><path clip-path="url(#clip420)" d="M2117.95 1318.79 L2117.95 1326.15 L2126.72 1326.15 L2126.72 1329.46 L2117.95 1329.46 L2117.95 1343.53 Q2117.95 1346.7 2118.8 1347.61 Q2119.68 1348.51 2122.35 1348.51 L2126.72 1348.51 L2126.72 1352.07 L2122.35 1352.07 Q2117.42 1352.07 2115.54 1350.25 Q2113.67 1348.39 2113.67 1343.53 L2113.67 1329.46 L2110.54 1329.46 L2110.54 1326.15 L2113.67 1326.15 L2113.67 1318.79 L2117.95 1318.79 Z" fill="#000000" fill-rule="nonzero" fill-opacity="1" /><path clip-path="url(#clip420)" d="M2144.11 1339.04 Q2138.94 1339.04 2136.95 1340.22 Q2134.96 1341.4 2134.96 1344.25 Q2134.96 1346.52 2136.44 1347.86 Q2137.95 1349.18 2140.52 1349.18 Q2144.06 1349.18 2146.19 1346.68 Q2148.34 1344.16 2148.34 1339.99 L2148.34 1339.04 L2144.11 1339.04 M2152.6 1337.28 L2152.6 1352.07 L2148.34 1352.07 L2148.34 1348.14 Q2146.88 1350.5 2144.71 1351.63 Q2142.53 1352.75 2139.38 1352.75 Q2135.4 1352.75 2133.04 1350.52 Q2130.7 1348.28 2130.7 1344.53 Q2130.7 1340.15 2133.62 1337.93 Q2136.56 1335.71 2142.37 1335.71 L2148.34 1335.71 L2148.34 1335.29 Q2148.34 1332.35 2146.4 1330.76 Q2144.48 1329.13 2140.98 1329.13 Q2138.76 1329.13 2136.65 1329.67 Q2134.55 1330.2 2132.6 1331.26 L2132.6 1327.33 Q2134.94 1326.43 2137.14 1325.99 Q2139.34 1325.52 2141.42 1325.52 Q2147.05 1325.52 2149.82 1328.44 Q2152.6 1331.36 2152.6 1337.28 Z" fill="#000000" fill-rule="nonzero" fill-opacity="1" /><polyline clip-path="url(#clip420)" style="stroke:#e26f46; stroke-linecap:round; stroke-linejoin:round; stroke-width:4; stroke-opacity:1; fill:none" points="1886.58,1386.63 2029,1386.63 "/>
<path clip-path="url(#clip420)" d="M2052.74 1369.35 L2057.42 1369.35 L2057.42 1399.98 L2074.24 1399.98 L2074.24 1403.91 L2052.74 1403.91 L2052.74 1369.35 Z" fill="#000000" fill-rule="nonzero" fill-opacity="1" /><path clip-path="url(#clip420)" d="M2078.97 1377.99 L2083.23 1377.99 L2083.23 1403.91 L2078.97 1403.91 L2078.97 1377.99 M2078.97 1367.9 L2083.23 1367.9 L2083.23 1373.29 L2078.97 1373.29 L2078.97 1367.9 Z" fill="#000000" fill-rule="nonzero" fill-opacity="1" /><path clip-path="url(#clip420)" d="M2113.69 1388.27 L2113.69 1403.91 L2109.43 1403.91 L2109.43 1388.41 Q2109.43 1384.72 2107.99 1382.9 Q2106.56 1381.07 2103.69 1381.07 Q2100.24 1381.07 2098.25 1383.27 Q2096.26 1385.47 2096.26 1389.26 L2096.26 1403.91 L2091.98 1403.91 L2091.98 1377.99 L2096.26 1377.99 L2096.26 1382.02 Q2097.79 1379.68 2099.85 1378.52 Q2101.93 1377.36 2104.64 1377.36 Q2109.11 1377.36 2111.4 1380.14 Q2113.69 1382.9 2113.69 1388.27 Z" fill="#000000" fill-rule="nonzero" fill-opacity="1" /><path clip-path="url(#clip420)" d="M2144.36 1389.89 L2144.36 1391.97 L2124.78 1391.97 Q2125.05 1396.37 2127.42 1398.68 Q2129.8 1400.97 2134.04 1400.97 Q2136.49 1400.97 2138.78 1400.37 Q2141.1 1399.77 2143.36 1398.57 L2143.36 1402.59 Q2141.07 1403.57 2138.67 1404.08 Q2136.26 1404.59 2133.78 1404.59 Q2127.58 1404.59 2123.94 1400.97 Q2120.33 1397.36 2120.33 1391.21 Q2120.33 1384.84 2123.76 1381.11 Q2127.21 1377.36 2133.04 1377.36 Q2138.27 1377.36 2141.3 1380.74 Q2144.36 1384.1 2144.36 1389.89 M2140.1 1388.64 Q2140.05 1385.14 2138.13 1383.06 Q2136.23 1380.97 2133.09 1380.97 Q2129.52 1380.97 2127.37 1382.99 Q2125.24 1385 2124.92 1388.66 L2140.1 1388.64 Z" fill="#000000" fill-rule="nonzero" fill-opacity="1" /><path clip-path="url(#clip420)" d="M2163.13 1390.88 Q2157.97 1390.88 2155.98 1392.06 Q2153.99 1393.24 2153.99 1396.09 Q2153.99 1398.36 2155.47 1399.7 Q2156.98 1401.02 2159.54 1401.02 Q2163.09 1401.02 2165.22 1398.52 Q2167.37 1396 2167.37 1391.83 L2167.37 1390.88 L2163.13 1390.88 M2171.63 1389.12 L2171.63 1403.91 L2167.37 1403.91 L2167.37 1399.98 Q2165.91 1402.34 2163.73 1403.47 Q2161.56 1404.59 2158.41 1404.59 Q2154.43 1404.59 2152.07 1402.36 Q2149.73 1400.12 2149.73 1396.37 Q2149.73 1391.99 2152.65 1389.77 Q2155.59 1387.55 2161.4 1387.55 L2167.37 1387.55 L2167.37 1387.13 Q2167.37 1384.19 2165.42 1382.6 Q2163.5 1380.97 2160.01 1380.97 Q2157.79 1380.97 2155.68 1381.51 Q2153.57 1382.04 2151.63 1383.1 L2151.63 1379.17 Q2153.97 1378.27 2156.17 1377.83 Q2158.36 1377.36 2160.45 1377.36 Q2166.07 1377.36 2168.85 1380.28 Q2171.63 1383.2 2171.63 1389.12 Z" fill="#000000" fill-rule="nonzero" fill-opacity="1" /><path clip-path="url(#clip420)" d="M2195.42 1381.97 Q2194.71 1381.55 2193.85 1381.37 Q2193.02 1381.16 2192 1381.16 Q2188.39 1381.16 2186.44 1383.52 Q2184.52 1385.86 2184.52 1390.26 L2184.52 1403.91 L2180.24 1403.91 L2180.24 1377.99 L2184.52 1377.99 L2184.52 1382.02 Q2185.86 1379.66 2188.02 1378.52 Q2190.17 1377.36 2193.25 1377.36 Q2193.69 1377.36 2194.22 1377.43 Q2194.75 1377.48 2195.4 1377.6 L2195.42 1381.97 Z" fill="#000000" fill-rule="nonzero" fill-opacity="1" /><path clip-path="url(#clip420)" d="M2228.09 1367.9 L2228.09 1371.44 L2224.01 1371.44 Q2221.72 1371.44 2220.82 1372.36 Q2219.94 1373.29 2219.94 1375.7 L2219.94 1377.99 L2226.95 1377.99 L2226.95 1381.3 L2219.94 1381.3 L2219.94 1403.91 L2215.66 1403.91 L2215.66 1381.3 L2211.58 1381.3 L2211.58 1377.99 L2215.66 1377.99 L2215.66 1376.18 Q2215.66 1371.85 2217.67 1369.89 Q2219.68 1367.9 2224.06 1367.9 L2228.09 1367.9 Z" fill="#000000" fill-rule="nonzero" fill-opacity="1" /><path clip-path="url(#clip420)" d="M2231.65 1377.99 L2235.91 1377.99 L2235.91 1403.91 L2231.65 1403.91 L2231.65 1377.99 M2231.65 1367.9 L2235.91 1367.9 L2235.91 1373.29 L2231.65 1373.29 L2231.65 1367.9 Z" fill="#000000" fill-rule="nonzero" fill-opacity="1" /><path clip-path="url(#clip420)" d="M2249.04 1370.63 L2249.04 1377.99 L2257.81 1377.99 L2257.81 1381.3 L2249.04 1381.3 L2249.04 1395.37 Q2249.04 1398.54 2249.89 1399.45 Q2250.77 1400.35 2253.43 1400.35 L2257.81 1400.35 L2257.81 1403.91 L2253.43 1403.91 Q2248.5 1403.91 2246.63 1402.09 Q2244.75 1400.23 2244.75 1395.37 L2244.75 1381.3 L2241.63 1381.3 L2241.63 1377.99 L2244.75 1377.99 L2244.75 1370.63 L2249.04 1370.63 Z" fill="#000000" fill-rule="nonzero" fill-opacity="1" /></svg>
