<?xml version="1.0" encoding="utf-8"?>
<svg xmlns="http://www.w3.org/2000/svg" xmlns:xlink="http://www.w3.org/1999/xlink" width="600" height="400" viewBox="0 0 2400 1600">
<defs>
  <clipPath id="clip180">
    <rect x="0" y="0" width="2400" height="1600"/>
  </clipPath>
</defs>
<path clip-path="url(#clip180)" d="M0 1600 L2400 1600 L2400 0 L0 0  Z" fill="#ffffff" fill-rule="evenodd" fill-opacity="1"/>
<defs>
  <clipPath id="clip181">
    <rect x="219" y="47" width="2134" height="1377"/>
  </clipPath>
</defs>
<path clip-path="url(#clip180)" d="M219.866 1423.18 L2352.76 1423.18 L2352.76 47.2441 L219.866 47.2441  Z" fill="#ffffff" fill-rule="evenodd" fill-opacity="1"/>
<polyline clip-path="url(#clip181)" style="stroke:#000000; stroke-linecap:round; stroke-linejoin:round; stroke-width:2; stroke-opacity:0.1; fill:none" points="503.804,1423.18 503.804,47.2441 "/>
<polyline clip-path="url(#clip181)" style="stroke:#000000; stroke-linecap:round; stroke-linejoin:round; stroke-width:2; stroke-opacity:0.1; fill:none" points="950.951,1423.18 950.951,47.2441 "/>
<polyline clip-path="url(#clip181)" style="stroke:#000000; stroke-linecap:round; stroke-linejoin:round; stroke-width:2; stroke-opacity:0.1; fill:none" points="1398.1,1423.18 1398.1,47.2441 "/>
<polyline clip-path="url(#clip181)" style="stroke:#000000; stroke-linecap:round; stroke-linejoin:round; stroke-width:2; stroke-opacity:0.1; fill:none" points="1845.24,1423.18 1845.24,47.2441 "/>
<polyline clip-path="url(#clip181)" style="stroke:#000000; stroke-linecap:round; stroke-linejoin:round; stroke-width:2; stroke-opacity:0.1; fill:none" points="2292.39,1423.18 2292.39,47.2441 "/>
<polyline clip-path="url(#clip181)" style="stroke:#000000; stroke-linecap:round; stroke-linejoin:round; stroke-width:2; stroke-opacity:0.1; fill:none" points="219.866,1423.18 2352.76,1423.18 "/>
<polyline clip-path="url(#clip181)" style="stroke:#000000; stroke-linecap:round; stroke-linejoin:round; stroke-width:2; stroke-opacity:0.1; fill:none" points="219.866,1147.99 2352.76,1147.99 "/>
<polyline clip-path="url(#clip181)" style="stroke:#000000; stroke-linecap:round; stroke-linejoin:round; stroke-width:2; stroke-opacity:0.1; fill:none" points="219.866,872.806 2352.76,872.806 "/>
<polyline clip-path="url(#clip181)" style="stroke:#000000; stroke-linecap:round; stroke-linejoin:round; stroke-width:2; stroke-opacity:0.1; fill:none" points="219.866,597.618 2352.76,597.618 "/>
<polyline clip-path="url(#clip181)" style="stroke:#000000; stroke-linecap:round; stroke-linejoin:round; stroke-width:2; stroke-opacity:0.1; fill:none" points="219.866,322.431 2352.76,322.431 "/>
<polyline clip-path="url(#clip181)" style="stroke:#000000; stroke-linecap:round; stroke-linejoin:round; stroke-width:2; stroke-opacity:0.1; fill:none" points="219.866,47.2441 2352.76,47.2441 "/>
<polyline clip-path="url(#clip180)" style="stroke:#000000; stroke-linecap:round; stroke-linejoin:round; stroke-width:4; stroke-opacity:1; fill:none" points="219.866,1423.18 2352.76,1423.18 "/>
<polyline clip-path="url(#clip180)" style="stroke:#000000; stroke-linecap:round; stroke-linejoin:round; stroke-width:4; stroke-opacity:1; fill:none" points="503.804,1423.18 503.804,1404.28 "/>
<polyline clip-path="url(#clip180)" style="stroke:#000000; stroke-linecap:round; stroke-linejoin:round; stroke-width:4; stroke-opacity:1; fill:none" points="950.951,1423.18 950.951,1404.28 "/>
<polyline clip-path="url(#clip180)" style="stroke:#000000; stroke-linecap:round; stroke-linejoin:round; stroke-width:4; stroke-opacity:1; fill:none" points="1398.1,1423.18 1398.1,1404.28 "/>
<polyline clip-path="url(#clip180)" style="stroke:#000000; stroke-linecap:round; stroke-linejoin:round; stroke-width:4; stroke-opacity:1; fill:none" points="1845.24,1423.18 1845.24,1404.28 "/>
<polyline clip-path="url(#clip180)" style="stroke:#000000; stroke-linecap:round; stroke-linejoin:round; stroke-width:4; stroke-opacity:1; fill:none" points="2292.39,1423.18 2292.39,1404.28 "/>
<path clip-path="url(#clip180)" d="M481.987 1454.1 Q478.376 1454.1 476.548 1457.66 Q474.742 1461.2 474.742 1468.33 Q474.742 1475.44 476.548 1479.01 Q478.376 1482.55 481.987 1482.55 Q485.622 1482.55 487.427 1479.01 Q489.256 1475.44 489.256 1468.33 Q489.256 1461.2 487.427 1457.66 Q485.622 1454.1 481.987 1454.1 M481.987 1450.39 Q487.798 1450.39 490.853 1455 Q493.932 1459.58 493.932 1468.33 Q493.932 1477.06 490.853 1481.67 Q487.798 1486.25 481.987 1486.25 Q476.177 1486.25 473.099 1481.67 Q470.043 1477.06 470.043 1468.33 Q470.043 1459.58 473.099 1455 Q476.177 1450.39 481.987 1450.39 Z" fill="#000000" fill-rule="nonzero" fill-opacity="1" /><path clip-path="url(#clip180)" d="M502.149 1479.7 L507.034 1479.7 L507.034 1485.58 L502.149 1485.58 L502.149 1479.7 Z" fill="#000000" fill-rule="nonzero" fill-opacity="1" /><path clip-path="url(#clip180)" d="M521.246 1481.64 L537.566 1481.64 L537.566 1485.58 L515.621 1485.58 L515.621 1481.64 Q518.283 1478.89 522.867 1474.26 Q527.473 1469.61 528.654 1468.27 Q530.899 1465.74 531.779 1464.01 Q532.682 1462.25 532.682 1460.56 Q532.682 1457.8 530.737 1456.07 Q528.816 1454.33 525.714 1454.33 Q523.515 1454.33 521.061 1455.09 Q518.631 1455.86 515.853 1457.41 L515.853 1452.69 Q518.677 1451.55 521.131 1450.97 Q523.584 1450.39 525.621 1450.39 Q530.992 1450.39 534.186 1453.08 Q537.381 1455.77 537.381 1460.26 Q537.381 1462.39 536.57 1464.31 Q535.783 1466.2 533.677 1468.8 Q533.098 1469.47 529.996 1472.69 Q526.895 1475.88 521.246 1481.64 Z" fill="#000000" fill-rule="nonzero" fill-opacity="1" /><path clip-path="url(#clip180)" d="M928.092 1454.1 Q924.481 1454.1 922.653 1457.66 Q920.847 1461.2 920.847 1468.33 Q920.847 1475.44 922.653 1479.01 Q924.481 1482.55 928.092 1482.55 Q931.727 1482.55 933.532 1479.01 Q935.361 1475.44 935.361 1468.33 Q935.361 1461.2 933.532 1457.66 Q931.727 1454.1 928.092 1454.1 M928.092 1450.39 Q933.903 1450.39 936.958 1455 Q940.037 1459.58 940.037 1468.33 Q940.037 1477.06 936.958 1481.67 Q933.903 1486.25 928.092 1486.25 Q922.282 1486.25 919.204 1481.67 Q916.148 1477.06 916.148 1468.33 Q916.148 1459.58 919.204 1455 Q922.282 1450.39 928.092 1450.39 Z" fill="#000000" fill-rule="nonzero" fill-opacity="1" /><path clip-path="url(#clip180)" d="M948.254 1479.7 L953.139 1479.7 L953.139 1485.58 L948.254 1485.58 L948.254 1479.7 Z" fill="#000000" fill-rule="nonzero" fill-opacity="1" /><path clip-path="url(#clip180)" d="M976.171 1455.09 L964.365 1473.54 L976.171 1473.54 L976.171 1455.09 M974.944 1451.02 L980.824 1451.02 L980.824 1473.54 L985.754 1473.54 L985.754 1477.43 L980.824 1477.43 L980.824 1485.58 L976.171 1485.58 L976.171 1477.43 L960.569 1477.43 L960.569 1472.92 L974.944 1451.02 Z" fill="#000000" fill-rule="nonzero" fill-opacity="1" /><path clip-path="url(#clip180)" d="M1375.4 1454.1 Q1371.79 1454.1 1369.96 1457.66 Q1368.16 1461.2 1368.16 1468.33 Q1368.16 1475.44 1369.96 1479.01 Q1371.79 1482.55 1375.4 1482.55 Q1379.04 1482.55 1380.84 1479.01 Q1382.67 1475.44 1382.67 1468.33 Q1382.67 1461.2 1380.84 1457.66 Q1379.04 1454.1 1375.4 1454.1 M1375.4 1450.39 Q1381.21 1450.39 1384.27 1455 Q1387.35 1459.58 1387.35 1468.33 Q1387.35 1477.06 1384.27 1481.67 Q1381.21 1486.25 1375.4 1486.25 Q1369.59 1486.25 1366.51 1481.67 Q1363.46 1477.06 1363.46 1468.33 Q1363.46 1459.58 1366.51 1455 Q1369.59 1450.39 1375.4 1450.39 Z" fill="#000000" fill-rule="nonzero" fill-opacity="1" /><path clip-path="url(#clip180)" d="M1395.56 1479.7 L1400.45 1479.7 L1400.45 1485.58 L1395.56 1485.58 L1395.56 1479.7 Z" fill="#000000" fill-rule="nonzero" fill-opacity="1" /><path clip-path="url(#clip180)" d="M1421.21 1466.44 Q1418.06 1466.44 1416.21 1468.59 Q1414.38 1470.74 1414.38 1474.49 Q1414.38 1478.22 1416.21 1480.39 Q1418.06 1482.55 1421.21 1482.55 Q1424.36 1482.55 1426.19 1480.39 Q1428.04 1478.22 1428.04 1474.49 Q1428.04 1470.74 1426.19 1468.59 Q1424.36 1466.44 1421.21 1466.44 M1430.49 1451.78 L1430.49 1456.04 Q1428.73 1455.21 1426.93 1454.77 Q1425.15 1454.33 1423.39 1454.33 Q1418.76 1454.33 1416.3 1457.45 Q1413.87 1460.58 1413.53 1466.9 Q1414.89 1464.89 1416.95 1463.82 Q1419.01 1462.73 1421.49 1462.73 Q1426.7 1462.73 1429.71 1465.9 Q1432.74 1469.05 1432.74 1474.49 Q1432.74 1479.82 1429.59 1483.03 Q1426.44 1486.25 1421.21 1486.25 Q1415.22 1486.25 1412.04 1481.67 Q1408.87 1477.06 1408.87 1468.33 Q1408.87 1460.14 1412.76 1455.28 Q1416.65 1450.39 1423.2 1450.39 Q1424.96 1450.39 1426.74 1450.74 Q1428.55 1451.09 1430.49 1451.78 Z" fill="#000000" fill-rule="nonzero" fill-opacity="1" /><path clip-path="url(#clip180)" d="M1822.68 1454.1 Q1819.06 1454.1 1817.24 1457.66 Q1815.43 1461.2 1815.43 1468.33 Q1815.43 1475.44 1817.24 1479.01 Q1819.06 1482.55 1822.68 1482.55 Q1826.31 1482.55 1828.11 1479.01 Q1829.94 1475.44 1829.94 1468.33 Q1829.94 1461.2 1828.11 1457.66 Q1826.31 1454.1 1822.68 1454.1 M1822.68 1450.39 Q1828.49 1450.39 1831.54 1455 Q1834.62 1459.58 1834.62 1468.33 Q1834.62 1477.06 1831.54 1481.67 Q1828.49 1486.25 1822.68 1486.25 Q1816.86 1486.25 1813.79 1481.67 Q1810.73 1477.06 1810.73 1468.33 Q1810.73 1459.58 1813.79 1455 Q1816.86 1450.39 1822.68 1450.39 Z" fill="#000000" fill-rule="nonzero" fill-opacity="1" /><path clip-path="url(#clip180)" d="M1842.84 1479.7 L1847.72 1479.7 L1847.72 1485.58 L1842.84 1485.58 L1842.84 1479.7 Z" fill="#000000" fill-rule="nonzero" fill-opacity="1" /><path clip-path="url(#clip180)" d="M1867.91 1469.17 Q1864.57 1469.17 1862.65 1470.95 Q1860.75 1472.73 1860.75 1475.86 Q1860.75 1478.98 1862.65 1480.77 Q1864.57 1482.55 1867.91 1482.55 Q1871.24 1482.55 1873.16 1480.77 Q1875.08 1478.96 1875.08 1475.86 Q1875.08 1472.73 1873.16 1470.95 Q1871.26 1469.17 1867.91 1469.17 M1863.23 1467.18 Q1860.22 1466.44 1858.53 1464.38 Q1856.86 1462.32 1856.86 1459.35 Q1856.86 1455.21 1859.8 1452.8 Q1862.77 1450.39 1867.91 1450.39 Q1873.07 1450.39 1876.01 1452.8 Q1878.95 1455.21 1878.95 1459.35 Q1878.95 1462.32 1877.26 1464.38 Q1875.59 1466.44 1872.61 1467.18 Q1875.99 1467.96 1877.86 1470.26 Q1879.76 1472.55 1879.76 1475.86 Q1879.76 1480.88 1876.68 1483.57 Q1873.62 1486.25 1867.91 1486.25 Q1862.19 1486.25 1859.11 1483.57 Q1856.05 1480.88 1856.05 1475.86 Q1856.05 1472.55 1857.95 1470.26 Q1859.85 1467.96 1863.23 1467.18 M1861.52 1459.79 Q1861.52 1462.48 1863.18 1463.98 Q1864.87 1465.49 1867.91 1465.49 Q1870.92 1465.49 1872.61 1463.98 Q1874.32 1462.48 1874.32 1459.79 Q1874.32 1457.11 1872.61 1455.6 Q1870.92 1454.1 1867.91 1454.1 Q1864.87 1454.1 1863.18 1455.6 Q1861.52 1457.11 1861.52 1459.79 Z" fill="#000000" fill-rule="nonzero" fill-opacity="1" /><path clip-path="url(#clip180)" d="M2259.54 1481.64 L2267.18 1481.64 L2267.18 1455.28 L2258.87 1456.95 L2258.87 1452.69 L2267.14 1451.02 L2271.81 1451.02 L2271.81 1481.64 L2279.45 1481.64 L2279.45 1485.58 L2259.54 1485.58 L2259.54 1481.64 Z" fill="#000000" fill-rule="nonzero" fill-opacity="1" /><path clip-path="url(#clip180)" d="M2288.9 1479.7 L2293.78 1479.7 L2293.78 1485.58 L2288.9 1485.58 L2288.9 1479.7 Z" fill="#000000" fill-rule="nonzero" fill-opacity="1" /><path clip-path="url(#clip180)" d="M2313.97 1454.1 Q2310.35 1454.1 2308.53 1457.66 Q2306.72 1461.2 2306.72 1468.33 Q2306.72 1475.44 2308.53 1479.01 Q2310.35 1482.55 2313.97 1482.55 Q2317.6 1482.55 2319.4 1479.01 Q2321.23 1475.44 2321.23 1468.33 Q2321.23 1461.2 2319.4 1457.66 Q2317.6 1454.1 2313.97 1454.1 M2313.97 1450.39 Q2319.78 1450.39 2322.83 1455 Q2325.91 1459.58 2325.91 1468.33 Q2325.91 1477.06 2322.83 1481.67 Q2319.78 1486.25 2313.97 1486.25 Q2308.15 1486.25 2305.08 1481.67 Q2302.02 1477.06 2302.02 1468.33 Q2302.02 1459.58 2305.08 1455 Q2308.15 1450.39 2313.97 1450.39 Z" fill="#000000" fill-rule="nonzero" fill-opacity="1" /><path clip-path="url(#clip180)" d="M1276.43 1550.25 Q1276.43 1556.71 1279.07 1560.4 Q1281.74 1564.07 1286.39 1564.07 Q1291.04 1564.07 1293.71 1560.4 Q1296.38 1556.71 1296.38 1550.25 Q1296.38 1543.79 1293.71 1540.13 Q1291.04 1536.44 1286.39 1536.44 Q1281.74 1536.44 1279.07 1540.13 Q1276.43 1543.79 1276.43 1550.25 M1296.38 1562.7 Q1294.54 1565.88 1291.71 1567.44 Q1288.91 1568.97 1284.96 1568.97 Q1278.5 1568.97 1274.42 1563.81 Q1270.38 1558.65 1270.38 1550.25 Q1270.38 1541.85 1274.42 1536.69 Q1278.5 1531.54 1284.96 1531.54 Q1288.91 1531.54 1291.71 1533.1 Q1294.54 1534.62 1296.38 1537.81 L1296.38 1532.4 L1302.24 1532.4 L1302.24 1581.6 L1296.38 1581.6 L1296.38 1562.7 Z" fill="#000000" fill-rule="nonzero" fill-opacity="1" /><polyline clip-path="url(#clip180)" style="stroke:#000000; stroke-linecap:round; stroke-linejoin:round; stroke-width:4; stroke-opacity:1; fill:none" points="219.866,1423.18 219.866,47.2441 "/>
<polyline clip-path="url(#clip180)" style="stroke:#000000; stroke-linecap:round; stroke-linejoin:round; stroke-width:4; stroke-opacity:1; fill:none" points="219.866,1423.18 238.764,1423.18 "/>
<polyline clip-path="url(#clip180)" style="stroke:#000000; stroke-linecap:round; stroke-linejoin:round; stroke-width:4; stroke-opacity:1; fill:none" points="219.866,1147.99 238.764,1147.99 "/>
<polyline clip-path="url(#clip180)" style="stroke:#000000; stroke-linecap:round; stroke-linejoin:round; stroke-width:4; stroke-opacity:1; fill:none" points="219.866,872.806 238.764,872.806 "/>
<polyline clip-path="url(#clip180)" style="stroke:#000000; stroke-linecap:round; stroke-linejoin:round; stroke-width:4; stroke-opacity:1; fill:none" points="219.866,597.618 238.764,597.618 "/>
<polyline clip-path="url(#clip180)" style="stroke:#000000; stroke-linecap:round; stroke-linejoin:round; stroke-width:4; stroke-opacity:1; fill:none" points="219.866,322.431 238.764,322.431 "/>
<polyline clip-path="url(#clip180)" style="stroke:#000000; stroke-linecap:round; stroke-linejoin:round; stroke-width:4; stroke-opacity:1; fill:none" points="219.866,47.2441 238.764,47.2441 "/>
<path clip-path="url(#clip180)" d="M126.691 1408.98 Q123.08 1408.98 121.251 1412.54 Q119.445 1416.08 119.445 1423.21 Q119.445 1430.32 121.251 1433.89 Q123.08 1437.43 126.691 1437.43 Q130.325 1437.43 132.13 1433.89 Q133.959 1430.32 133.959 1423.21 Q133.959 1416.08 132.13 1412.54 Q130.325 1408.98 126.691 1408.98 M126.691 1405.27 Q132.501 1405.27 135.556 1409.88 Q138.635 1414.46 138.635 1423.21 Q138.635 1431.94 135.556 1436.55 Q132.501 1441.13 126.691 1441.13 Q120.88 1441.13 117.802 1436.55 Q114.746 1431.94 114.746 1423.21 Q114.746 1414.46 117.802 1409.88 Q120.88 1405.27 126.691 1405.27 Z" fill="#000000" fill-rule="nonzero" fill-opacity="1" /><path clip-path="url(#clip180)" d="M146.853 1434.58 L151.737 1434.58 L151.737 1440.46 L146.853 1440.46 L146.853 1434.58 Z" fill="#000000" fill-rule="nonzero" fill-opacity="1" /><path clip-path="url(#clip180)" d="M171.922 1408.98 Q168.311 1408.98 166.482 1412.54 Q164.677 1416.08 164.677 1423.21 Q164.677 1430.32 166.482 1433.89 Q168.311 1437.43 171.922 1437.43 Q175.556 1437.43 177.362 1433.89 Q179.19 1430.32 179.19 1423.21 Q179.19 1416.08 177.362 1412.54 Q175.556 1408.98 171.922 1408.98 M171.922 1405.27 Q177.732 1405.27 180.788 1409.88 Q183.866 1414.46 183.866 1423.21 Q183.866 1431.94 180.788 1436.55 Q177.732 1441.13 171.922 1441.13 Q166.112 1441.13 163.033 1436.55 Q159.978 1431.94 159.978 1423.21 Q159.978 1414.46 163.033 1409.88 Q166.112 1405.27 171.922 1405.27 Z" fill="#000000" fill-rule="nonzero" fill-opacity="1" /><path clip-path="url(#clip180)" d="M128.288 1133.79 Q124.677 1133.79 122.848 1137.36 Q121.043 1140.9 121.043 1148.03 Q121.043 1155.13 122.848 1158.7 Q124.677 1162.24 128.288 1162.24 Q131.922 1162.24 133.728 1158.7 Q135.556 1155.13 135.556 1148.03 Q135.556 1140.9 133.728 1137.36 Q131.922 1133.79 128.288 1133.79 M128.288 1130.09 Q134.098 1130.09 137.154 1134.69 Q140.232 1139.28 140.232 1148.03 Q140.232 1156.75 137.154 1161.36 Q134.098 1165.94 128.288 1165.94 Q122.478 1165.94 119.399 1161.36 Q116.343 1156.75 116.343 1148.03 Q116.343 1139.28 119.399 1134.69 Q122.478 1130.09 128.288 1130.09 Z" fill="#000000" fill-rule="nonzero" fill-opacity="1" /><path clip-path="url(#clip180)" d="M148.45 1159.39 L153.334 1159.39 L153.334 1165.27 L148.45 1165.27 L148.45 1159.39 Z" fill="#000000" fill-rule="nonzero" fill-opacity="1" /><path clip-path="url(#clip180)" d="M167.547 1161.34 L183.866 1161.34 L183.866 1165.27 L161.922 1165.27 L161.922 1161.34 Q164.584 1158.58 169.167 1153.95 Q173.774 1149.3 174.954 1147.96 Q177.2 1145.43 178.079 1143.7 Q178.982 1141.94 178.982 1140.25 Q178.982 1137.5 177.038 1135.76 Q175.116 1134.02 172.014 1134.02 Q169.815 1134.02 167.362 1134.79 Q164.931 1135.55 162.153 1137.1 L162.153 1132.38 Q164.977 1131.25 167.431 1130.67 Q169.885 1130.09 171.922 1130.09 Q177.292 1130.09 180.487 1132.77 Q183.681 1135.46 183.681 1139.95 Q183.681 1142.08 182.871 1144 Q182.084 1145.9 179.977 1148.49 Q179.399 1149.16 176.297 1152.38 Q173.195 1155.57 167.547 1161.34 Z" fill="#000000" fill-rule="nonzero" fill-opacity="1" /><path clip-path="url(#clip180)" d="M126.205 858.604 Q122.593 858.604 120.765 862.169 Q118.959 865.711 118.959 872.84 Q118.959 879.947 120.765 883.512 Q122.593 887.053 126.205 887.053 Q129.839 887.053 131.644 883.512 Q133.473 879.947 133.473 872.84 Q133.473 865.711 131.644 862.169 Q129.839 858.604 126.205 858.604 M126.205 854.901 Q132.015 854.901 135.07 859.507 Q138.149 864.09 138.149 872.84 Q138.149 881.567 135.07 886.174 Q132.015 890.757 126.205 890.757 Q120.394 890.757 117.316 886.174 Q114.26 881.567 114.26 872.84 Q114.26 864.09 117.316 859.507 Q120.394 854.901 126.205 854.901 Z" fill="#000000" fill-rule="nonzero" fill-opacity="1" /><path clip-path="url(#clip180)" d="M146.366 884.206 L151.251 884.206 L151.251 890.086 L146.366 890.086 L146.366 884.206 Z" fill="#000000" fill-rule="nonzero" fill-opacity="1" /><path clip-path="url(#clip180)" d="M174.283 859.6 L162.477 878.049 L174.283 878.049 L174.283 859.6 M173.056 855.526 L178.936 855.526 L178.936 878.049 L183.866 878.049 L183.866 881.937 L178.936 881.937 L178.936 890.086 L174.283 890.086 L174.283 881.937 L158.681 881.937 L158.681 877.424 L173.056 855.526 Z" fill="#000000" fill-rule="nonzero" fill-opacity="1" /><path clip-path="url(#clip180)" d="M126.529 583.417 Q122.918 583.417 121.089 586.982 Q119.283 590.524 119.283 597.653 Q119.283 604.76 121.089 608.324 Q122.918 611.866 126.529 611.866 Q130.163 611.866 131.968 608.324 Q133.797 604.76 133.797 597.653 Q133.797 590.524 131.968 586.982 Q130.163 583.417 126.529 583.417 M126.529 579.713 Q132.339 579.713 135.394 584.32 Q138.473 588.903 138.473 597.653 Q138.473 606.38 135.394 610.986 Q132.339 615.57 126.529 615.57 Q120.718 615.57 117.64 610.986 Q114.584 606.38 114.584 597.653 Q114.584 588.903 117.64 584.32 Q120.718 579.713 126.529 579.713 Z" fill="#000000" fill-rule="nonzero" fill-opacity="1" /><path clip-path="url(#clip180)" d="M146.691 609.019 L151.575 609.019 L151.575 614.898 L146.691 614.898 L146.691 609.019 Z" fill="#000000" fill-rule="nonzero" fill-opacity="1" /><path clip-path="url(#clip180)" d="M172.339 595.755 Q169.19 595.755 167.339 597.908 Q165.51 600.061 165.51 603.81 Q165.51 607.537 167.339 609.713 Q169.19 611.866 172.339 611.866 Q175.487 611.866 177.315 609.713 Q179.167 607.537 179.167 603.81 Q179.167 600.061 177.315 597.908 Q175.487 595.755 172.339 595.755 M181.621 581.102 L181.621 585.362 Q179.862 584.528 178.056 584.088 Q176.274 583.649 174.514 583.649 Q169.885 583.649 167.431 586.774 Q165.001 589.899 164.653 596.218 Q166.019 594.204 168.079 593.139 Q170.139 592.051 172.616 592.051 Q177.825 592.051 180.834 595.223 Q183.866 598.371 183.866 603.81 Q183.866 609.135 180.718 612.352 Q177.57 615.57 172.339 615.57 Q166.343 615.57 163.172 610.986 Q160.001 606.38 160.001 597.653 Q160.001 589.459 163.89 584.598 Q167.778 579.713 174.329 579.713 Q176.089 579.713 177.871 580.061 Q179.676 580.408 181.621 581.102 Z" fill="#000000" fill-rule="nonzero" fill-opacity="1" /><path clip-path="url(#clip180)" d="M126.783 308.23 Q123.172 308.23 121.343 311.795 Q119.538 315.336 119.538 322.466 Q119.538 329.572 121.343 333.137 Q123.172 336.679 126.783 336.679 Q130.417 336.679 132.223 333.137 Q134.052 329.572 134.052 322.466 Q134.052 315.336 132.223 311.795 Q130.417 308.23 126.783 308.23 M126.783 304.526 Q132.593 304.526 135.649 309.133 Q138.728 313.716 138.728 322.466 Q138.728 331.193 135.649 335.799 Q132.593 340.383 126.783 340.383 Q120.973 340.383 117.894 335.799 Q114.839 331.193 114.839 322.466 Q114.839 313.716 117.894 309.133 Q120.973 304.526 126.783 304.526 Z" fill="#000000" fill-rule="nonzero" fill-opacity="1" /><path clip-path="url(#clip180)" d="M146.945 333.832 L151.829 333.832 L151.829 339.711 L146.945 339.711 L146.945 333.832 Z" fill="#000000" fill-rule="nonzero" fill-opacity="1" /><path clip-path="url(#clip180)" d="M172.014 323.299 Q168.681 323.299 166.76 325.082 Q164.862 326.864 164.862 329.989 Q164.862 333.114 166.76 334.896 Q168.681 336.679 172.014 336.679 Q175.348 336.679 177.269 334.896 Q179.19 333.091 179.19 329.989 Q179.19 326.864 177.269 325.082 Q175.371 323.299 172.014 323.299 M167.339 321.309 Q164.329 320.568 162.64 318.508 Q160.973 316.447 160.973 313.485 Q160.973 309.341 163.913 306.934 Q166.876 304.526 172.014 304.526 Q177.176 304.526 180.116 306.934 Q183.056 309.341 183.056 313.485 Q183.056 316.447 181.366 318.508 Q179.7 320.568 176.714 321.309 Q180.093 322.096 181.968 324.387 Q183.866 326.679 183.866 329.989 Q183.866 335.012 180.788 337.697 Q177.732 340.383 172.014 340.383 Q166.297 340.383 163.218 337.697 Q160.163 335.012 160.163 329.989 Q160.163 326.679 162.061 324.387 Q163.959 322.096 167.339 321.309 M165.626 313.924 Q165.626 316.61 167.292 318.114 Q168.982 319.619 172.014 319.619 Q175.024 319.619 176.714 318.114 Q178.426 316.61 178.426 313.924 Q178.426 311.239 176.714 309.735 Q175.024 308.23 172.014 308.23 Q168.982 308.23 167.292 309.735 Q165.626 311.239 165.626 313.924 Z" fill="#000000" fill-rule="nonzero" fill-opacity="1" /><path clip-path="url(#clip180)" d="M117.501 60.5889 L125.14 60.5889 L125.14 34.2233 L116.83 35.89 L116.83 31.6308 L125.093 29.9641 L129.769 29.9641 L129.769 60.5889 L137.408 60.5889 L137.408 64.5241 L117.501 64.5241 L117.501 60.5889 Z" fill="#000000" fill-rule="nonzero" fill-opacity="1" /><path clip-path="url(#clip180)" d="M146.853 58.6445 L151.737 58.6445 L151.737 64.5241 L146.853 64.5241 L146.853 58.6445 Z" fill="#000000" fill-rule="nonzero" fill-opacity="1" /><path clip-path="url(#clip180)" d="M171.922 33.0428 Q168.311 33.0428 166.482 36.6076 Q164.677 40.1492 164.677 47.2788 Q164.677 54.3853 166.482 57.9501 Q168.311 61.4917 171.922 61.4917 Q175.556 61.4917 177.362 57.9501 Q179.19 54.3853 179.19 47.2788 Q179.19 40.1492 177.362 36.6076 Q175.556 33.0428 171.922 33.0428 M171.922 29.3391 Q177.732 29.3391 180.788 33.9456 Q183.866 38.5289 183.866 47.2788 Q183.866 56.0056 180.788 60.6121 Q177.732 65.1954 171.922 65.1954 Q166.112 65.1954 163.033 60.6121 Q159.978 56.0056 159.978 47.2788 Q159.978 38.5289 163.033 33.9456 Q166.112 29.3391 171.922 29.3391 Z" fill="#000000" fill-rule="nonzero" fill-opacity="1" /><path clip-path="url(#clip180)" d="M16.4842 799.84 L16.4842 793.41 L35.9632 793.41 L35.9632 770.048 L16.4842 770.048 L16.4842 763.619 L64.0042 763.619 L64.0042 770.048 L41.3741 770.048 L41.3741 793.41 L64.0042 793.41 L64.0042 799.84 L16.4842 799.84 Z" fill="#000000" fill-rule="nonzero" fill-opacity="1" /><path clip-path="url(#clip180)" d="M14.5426 737.01 Q21.8632 741.275 29.0246 743.344 Q36.186 745.413 43.5384 745.413 Q50.8908 745.413 58.1159 743.344 Q65.3091 741.243 72.5979 737.01 L72.5979 742.103 Q65.1182 746.877 57.8931 749.264 Q50.668 751.62 43.5384 751.62 Q36.4406 751.62 29.2474 749.264 Q22.0542 746.909 14.5426 742.103 L14.5426 737.01 Z" fill="#000000" fill-rule="nonzero" fill-opacity="1" /><path clip-path="url(#clip180)" d="M46.212 722.146 Q52.6732 722.146 56.3653 719.505 Q60.0256 716.831 60.0256 712.184 Q60.0256 707.537 56.3653 704.863 Q52.6732 702.19 46.212 702.19 Q39.7508 702.19 36.0905 704.863 Q32.3984 707.537 32.3984 712.184 Q32.3984 716.831 36.0905 719.505 Q39.7508 722.146 46.212 722.146 M58.657 702.19 Q61.8398 704.036 63.3994 706.869 Q64.9272 709.67 64.9272 713.616 Q64.9272 720.078 59.771 724.152 Q54.6147 728.194 46.212 728.194 Q37.8093 728.194 32.6531 724.152 Q27.4968 720.078 27.4968 713.616 Q27.4968 709.67 29.0564 706.869 Q30.5842 704.036 33.7671 702.19 L28.3562 702.19 L28.3562 696.333 L77.5631 696.333 L77.5631 702.19 L58.657 702.19 Z" fill="#000000" fill-rule="nonzero" fill-opacity="1" /><path clip-path="url(#clip180)" d="M14.5426 685.193 L14.5426 680.101 Q22.0542 675.327 29.2474 672.971 Q36.4406 670.584 43.5384 670.584 Q50.668 670.584 57.8931 672.971 Q65.1182 675.327 72.5979 680.101 L72.5979 685.193 Q65.3091 680.96 58.1159 678.891 Q50.8908 676.791 43.5384 676.791 Q36.186 676.791 29.0246 678.891 Q21.8632 680.96 14.5426 685.193 Z" fill="#000000" fill-rule="nonzero" fill-opacity="1" /><polyline clip-path="url(#clip181)" style="stroke:#009af9; stroke-linecap:round; stroke-linejoin:round; stroke-width:4; stroke-opacity:1; fill:none" points="280.231,585.85 503.804,597.578 727.378,609.104 950.951,620.386 1174.52,631.399 1398.1,642.126 1621.67,652.557 1845.24,662.686 2068.82,672.511 2292.39,682.03 "/>
<polyline clip-path="url(#clip181)" style="stroke:#000000; stroke-linecap:round; stroke-linejoin:round; stroke-width:4; stroke-opacity:1; fill:none" points="280.231,587.044 280.231,584.656 "/>
<polyline clip-path="url(#clip181)" style="stroke:#000000; stroke-linecap:round; stroke-linejoin:round; stroke-width:4; stroke-opacity:1; fill:none" points="503.804,599.838 503.804,595.318 "/>
<polyline clip-path="url(#clip181)" style="stroke:#000000; stroke-linecap:round; stroke-linejoin:round; stroke-width:4; stroke-opacity:1; fill:none" points="727.378,612.313 727.378,605.895 "/>
<polyline clip-path="url(#clip181)" style="stroke:#000000; stroke-linecap:round; stroke-linejoin:round; stroke-width:4; stroke-opacity:1; fill:none" points="950.951,624.437 950.951,616.335 "/>
<polyline clip-path="url(#clip181)" style="stroke:#000000; stroke-linecap:round; stroke-linejoin:round; stroke-width:4; stroke-opacity:1; fill:none" points="1174.52,636.194 1174.52,626.604 "/>
<polyline clip-path="url(#clip181)" style="stroke:#000000; stroke-linecap:round; stroke-linejoin:round; stroke-width:4; stroke-opacity:1; fill:none" points="1398.1,647.576 1398.1,636.676 "/>
<polyline clip-path="url(#clip181)" style="stroke:#000000; stroke-linecap:round; stroke-linejoin:round; stroke-width:4; stroke-opacity:1; fill:none" points="1621.67,658.581 1621.67,646.533 "/>
<polyline clip-path="url(#clip181)" style="stroke:#000000; stroke-linecap:round; stroke-linejoin:round; stroke-width:4; stroke-opacity:1; fill:none" points="1845.24,669.21 1845.24,656.163 "/>
<polyline clip-path="url(#clip181)" style="stroke:#000000; stroke-linecap:round; stroke-linejoin:round; stroke-width:4; stroke-opacity:1; fill:none" points="2068.82,679.467 2068.82,665.554 "/>
<polyline clip-path="url(#clip181)" style="stroke:#000000; stroke-linecap:round; stroke-linejoin:round; stroke-width:4; stroke-opacity:1; fill:none" points="2292.39,689.359 2292.39,674.701 "/>
<line clip-path="url(#clip181)" x1="296.231" y1="587.044" x2="264.231" y2="587.044" style="stroke:#000000; stroke-width:4; stroke-opacity:1"/>
<line clip-path="url(#clip181)" x1="296.231" y1="584.656" x2="264.231" y2="584.656" style="stroke:#000000; stroke-width:4; stroke-opacity:1"/>
<line clip-path="url(#clip181)" x1="519.804" y1="599.838" x2="487.804" y2="599.838" style="stroke:#000000; stroke-width:4; stroke-opacity:1"/>
<line clip-path="url(#clip181)" x1="519.804" y1="595.318" x2="487.804" y2="595.318" style="stroke:#000000; stroke-width:4; stroke-opacity:1"/>
<line clip-path="url(#clip181)" x1="743.378" y1="612.313" x2="711.378" y2="612.313" style="stroke:#000000; stroke-width:4; stroke-opacity:1"/>
<line clip-path="url(#clip181)" x1="743.378" y1="605.895" x2="711.378" y2="605.895" style="stroke:#000000; stroke-width:4; stroke-opacity:1"/>
<line clip-path="url(#clip181)" x1="966.951" y1="624.437" x2="934.951" y2="624.437" style="stroke:#000000; stroke-width:4; stroke-opacity:1"/>
<line clip-path="url(#clip181)" x1="966.951" y1="616.335" x2="934.951" y2="616.335" style="stroke:#000000; stroke-width:4; stroke-opacity:1"/>
<line clip-path="url(#clip181)" x1="1190.52" y1="636.194" x2="1158.52" y2="636.194" style="stroke:#000000; stroke-width:4; stroke-opacity:1"/>
<line clip-path="url(#clip181)" x1="1190.52" y1="626.604" x2="1158.52" y2="626.604" style="stroke:#000000; stroke-width:4; stroke-opacity:1"/>
<line clip-path="url(#clip181)" x1="1414.1" y1="647.576" x2="1382.1" y2="647.576" style="stroke:#000000; stroke-width:4; stroke-opacity:1"/>
<line clip-path="url(#clip181)" x1="1414.1" y1="636.676" x2="1382.1" y2="636.676" style="stroke:#000000; stroke-width:4; stroke-opacity:1"/>
<line clip-path="url(#clip181)" x1="1637.67" y1="658.581" x2="1605.67" y2="658.581" style="stroke:#000000; stroke-width:4; stroke-opacity:1"/>
<line clip-path="url(#clip181)" x1="1637.67" y1="646.533" x2="1605.67" y2="646.533" style="stroke:#000000; stroke-width:4; stroke-opacity:1"/>
<line clip-path="url(#clip181)" x1="1861.24" y1="669.21" x2="1829.24" y2="669.21" style="stroke:#000000; stroke-width:4; stroke-opacity:1"/>
<line clip-path="url(#clip181)" x1="1861.24" y1="656.163" x2="1829.24" y2="656.163" style="stroke:#000000; stroke-width:4; stroke-opacity:1"/>
<line clip-path="url(#clip181)" x1="2084.82" y1="679.467" x2="2052.82" y2="679.467" style="stroke:#000000; stroke-width:4; stroke-opacity:1"/>
<line clip-path="url(#clip181)" x1="2084.82" y1="665.554" x2="2052.82" y2="665.554" style="stroke:#000000; stroke-width:4; stroke-opacity:1"/>
<line clip-path="url(#clip181)" x1="2308.39" y1="689.359" x2="2276.39" y2="689.359" style="stroke:#000000; stroke-width:4; stroke-opacity:1"/>
<line clip-path="url(#clip181)" x1="2308.39" y1="674.701" x2="2276.39" y2="674.701" style="stroke:#000000; stroke-width:4; stroke-opacity:1"/>
</svg>
